Coordinates
version=1
nRows=19
nColumns=24
inDegrees=yes

Units are S.I. units (second, meters, Newtons, ...)
Angles are in degrees.

endheader
time	pelvis_tilt	pelvis_list	pelvis_rotation	pelvis_tx	pelvis_ty	pelvis_tz	hip_flexion_r	hip_adduction_r	hip_rotation_r	knee_angle_r	ankle_angle_r	subtalar_angle_r	mtp_angle_r	hip_flexion_l	hip_adduction_l	hip_rotation_l	knee_angle_l	ankle_angle_l	subtalar_angle_l	mtp_angle_l	lumbar_extension	lumbar_bending	lumbar_rotation
      3.58500000	     -4.25609093	     -6.29926211	     -0.36240253	      0.07660524	     -0.01191064	     -0.12870691	      8.29980725	     14.50047811	     13.87181119	    -16.16120582	      0.39706124	     -5.03201404	      6.70578855	     32.11243457	     -7.31792807	     -6.93142345	    -63.78838270	     -5.91625305	     -8.44655726	     -8.71864063	      5.59233252	      5.15725561	     -1.63964218
      3.59000000	     -4.22427325	     -6.15205309	     -0.48981837	      0.08233852	     -0.01148914	     -0.12835980	      7.51974053	     14.31849514	     14.15889551	    -15.65634145	      0.54754903	     -4.98851327	      6.81076414	     32.68911836	     -7.12721154	     -7.03776052	    -62.75269496	     -5.28926985	     -7.67502031	     -8.09588534	      5.49584914	      5.00609562	     -1.37544789
      3.59500000	     -4.23287098	     -5.99256085	     -0.63426854	      0.08807238	     -0.01116367	     -0.12797134	      6.81353123	     14.12729576	     14.39116906	    -15.19790989	      0.68879077	     -4.94279728	      6.92754718	     33.26495040	     -6.95037081	     -7.20410383	    -61.63086229	     -4.64340164	     -6.92527191	     -7.57765073	      5.44282726	      4.83011178	     -1.15088460
      3.60000000	     -4.23460923	     -5.84096264	     -0.76719465	      0.09379112	     -0.01090338	     -0.12762128	      6.10813905	     13.93884724	     14.62401816	    -14.74646245	      0.82381594	     -4.91789265	      7.06969724	     33.80664813	     -6.77704641	     -7.35221652	    -60.44342334	     -4.03948440	     -6.15761302	     -7.09478399	      5.38156358	      4.67090256	     -0.90950770
      3.60500000	     -4.26317743	     -5.68418640	     -0.88183073	      0.09951194	     -0.01075150	     -0.12729673	      5.44849499	     13.74388146	     14.81976944	    -14.31721278	      0.98400017	     -4.91549484	      7.21501489	     34.35229963	     -6.59989224	     -7.51659872	    -59.19391892	     -3.46505192	     -5.41081478	     -6.71624893	      5.35027923	      4.49892677	     -0.70576535
      3.61000000	     -4.25412575	     -5.53735082	     -0.99999808	      0.10519629	     -0.01059590	     -0.12703600	      4.76768717	     13.55618002	     15.02420523	    -13.91578606	      1.06918666	     -4.95926049	      7.40745038	     34.80862794	     -6.42015496	     -7.64601444	    -57.85346789	     -2.91032715	     -4.64614960	     -6.35149906	      5.27403491	      4.36191582	     -0.43884417
      3.61500000	     -4.31066869	     -5.39387043	     -1.10034279	      0.11089610	     -0.01059869	     -0.12679433	      4.17930445	     13.37464543	     15.17746335	    -13.55182380	      1.22486328	     -4.97056335	      7.55168316	     35.31958761	     -6.25876077	     -7.82091363	    -56.47281120	     -2.37001415	     -3.88621643	     -6.14012884	      5.27351530	      4.21389884	     -0.26981576
      3.62000000	     -4.34553379	     -5.25478928	     -1.19741623	      0.11656691	     -0.01064073	     -0.12658407	      3.58209219	     13.19961096	     15.32078037	    -13.20751789	      1.37298977	     -5.01597564	      7.69419848	     35.77004592	     -6.09861706	     -7.98077249	    -55.02874049	     -1.84826763	     -3.09475298	     -6.01819589	      5.24735774	      4.07789904	     -0.05118851
      3.62500000	     -4.38324960	     -5.11835942	     -1.28386730	      0.12223236	     -0.01074387	     -0.12643867	      3.00899380	     13.02858566	     15.45035386	    -12.90216371	      1.51482726	     -5.09049400	      7.82694812	     36.18593375	     -5.93752195	     -8.15092358	    -53.52031608	     -1.33917371	     -2.29965503	     -6.00066168	      5.22310241	      3.95228889	      0.15722462
      3.63000000	     -4.41313182	     -4.98032961	     -1.36718870	      0.12784322	     -0.01089634	     -0.12632662	      2.45458246	     12.86094884	     15.55599576	    -12.63590218	      1.64056574	     -5.21523885	      7.95525416	     36.55750981	     -5.77064865	     -8.31572140	    -51.95320387	     -0.83953856	     -1.49162045	     -6.14725226	      5.18045202	      3.83093254	      0.39355984
      3.63500000	     -4.42548548	     -4.83717008	     -1.42226658	      0.13351481	     -0.01108711	     -0.12631363	      1.86737702	     12.68092044	     15.69219870	    -12.34594618	      1.70878494	     -5.45218267	      8.12943344	     36.87619046	     -5.58927218	     -8.53032421	    -50.36166220	     -0.23763979	     -0.67373416	     -6.93359278	      5.13453401	      3.70270638	      0.55291697
      3.64000000	     -4.57534883	     -4.74577504	     -1.46860098	      0.13904766	     -0.01151725	     -0.12631721	      1.51139630	     12.57304477	     15.69698194	    -12.19630777	      1.92212926	     -5.49215943	      8.18499606	     37.34006857	     -5.45372306	     -8.66733609	    -48.70771526	      0.11052162	      0.12354210	     -6.95290435	      5.21444491	      3.63101706	      0.67789847
      3.64500000	     -4.62726187	     -4.66530377	     -1.55299787	      0.14463070	     -0.01188997	     -0.12629384	      1.02843363	     12.47339498	     15.76802481	    -12.02604605	      2.12478467	     -5.52314760	      8.23306379	     37.64355242	     -5.38178816	     -8.91496768	    -47.01903965	      0.51428155	      1.00778851	     -7.08530289	      5.20074448	      3.58988590	      0.92463215
      3.65000000	     -4.68908215	     -4.58111889	     -1.62006905	      0.15017431	     -0.01231623	     -0.12633655	      0.58278784	     12.37232510	     15.80861943	    -11.89861578	      2.32280374	     -5.59005341	      8.26153879	     37.92262189	     -5.28620325	     -9.15244820	    -45.27786329	      0.87160553	      1.86511554	     -7.30040691	      5.18158482	      3.54112243	      1.11661982
      3.65500000	     -4.76244546	     -4.51667202	     -1.67914910	      0.15570747	     -0.01281242	     -0.12641192	      0.16848564	     12.29406637	     15.82177314	    -11.80547258	      2.52837477	     -5.64186044	      8.29494503	     38.18879537	     -5.20988906	     -9.40341813	    -43.51325536	      1.20157434	      2.74081857	     -7.51909650	      5.17254440	      3.51499173	      1.28970050
      3.66000000	     -4.82764127	     -4.47059130	     -1.74957601	      0.16122106	     -0.01335574	     -0.12649255	     -0.23734870	     12.23597183	     15.81844370	    -11.74361788	      2.74560401	     -5.66034073	      8.34242687	     38.41693380	     -5.16363367	     -9.68196992	    -41.73175818	      1.53296260	      3.64994467	     -7.73182470	      5.14693458	      3.50904034	      1.46622016
      3.66500000	     -4.90516055	     -4.44324030	     -1.81601211	      0.16673299	     -0.01395739	     -0.12661646	     -0.61882847	     12.19324903	     15.79875345	    -11.70115769	      2.96383981	     -5.63927896	      8.40962625	     38.63542724	     -5.13629642	     -9.98331810	    -39.94011076	      1.83605542	      4.58685062	     -7.88618261	      5.12587390	      3.52353027	      1.59978728
      3.67000000	     -4.95314794	     -4.43240053	     -1.90185996	      0.17225943	     -0.01457462	     -0.12672183	     -1.02080571	     12.16640020	     15.76461739	    -11.68623419	      3.20119352	     -5.56341736	      8.50873732	     38.78930050	     -5.13981405	    -10.31723074	    -38.14458524	      2.17219236	      5.56837677	     -8.02741493	      5.07436012	      3.55879616	      1.77885361
      3.67500000	     -5.03867601	     -4.43164213	     -1.95309168	      0.17783300	     -0.01529273	     -0.12688106	     -1.37682699	     12.14816878	     15.70723144	    -11.68524938	      3.44353219	     -5.49552535	      8.62642304	     38.97249609	     -5.13367955	    -10.67013560	    -36.35846908	      2.48269981	      6.55553699	     -8.07888537	      5.07145833	      3.59389087	      1.83452047
